<?xml version="1.0" encoding="utf-8"?>
<!-- Generator: Adobe Illustrator 24.2.3, SVG Export Plug-In . SVG Version: 6.00 Build 0)  -->
<svg version="1.1" id="Capa_1" xmlns="http://www.w3.org/2000/svg" xmlns:xlink="http://www.w3.org/1999/xlink" x="0px" y="0px"
	 viewBox="0 0 150 100" style="enable-background:new 0 0 150 100;" xml:space="preserve">
<style type="text/css">
	.st0{fill:#E6E6E6;}
	.st1{fill:none;stroke:#303841;stroke-width:2.4065;}
	.st2{fill:#D8DBD7;stroke:#303841;stroke-width:2.4065;}
	.st3{fill:#FFFFFF;stroke:#41579E;stroke-width:2.4065;stroke-linecap:round;stroke-linejoin:round;}
	.st4{fill:#FFFFFF;stroke:#303841;stroke-width:2.4065;stroke-linecap:round;stroke-linejoin:round;}
	.st5{fill:#41579E;}
</style>
<g>
	<circle class="st0" cx="43.09" cy="40.96" r="31.92"/>
	<g>
		<g>
			<path class="st1" d="M106.16,40.96c0,17.42-14.12,31.54-31.54,31.54c-17.42,0-31.54-14.12-31.54-31.54
				c0-17.42,14.12-31.54,31.54-31.54C92.04,9.42,106.16,23.54,106.16,40.96z"/>
			<path class="st1" d="M93.97,40.96c0,17.42-8.66,31.54-19.35,31.54c-10.68,0-19.35-14.12-19.35-31.54
				c0-17.42,8.66-31.54,19.35-31.54C85.31,9.42,93.97,23.54,93.97,40.96z"/>
			<line class="st2" x1="75.16" y1="71.56" x2="75.16" y2="10.01"/>
			<line class="st2" x1="45.75" y1="29.86" x2="104.51" y2="29.86"/>
			<line class="st2" x1="47.12" y1="54.44" x2="103.18" y2="54.44"/>
		</g>
		<path class="st3" d="M112.14,78.14l13.35,13.35c1.56,1.56,1.59,4.06,0.07,5.58l-0.08,0.08c-1.52,1.52-4.02,1.49-5.58-0.07
			l-6.71-6.71"/>
		<path class="st4" d="M80.28,81.73c-4.27-3.9-6.95-9.51-6.95-15.75c0-11.77,9.54-21.32,21.32-21.32c11.78,0,21.32,9.54,21.32,21.32
			c0,1.93-0.26,3.8-0.74,5.58"/>
		<path class="st4" d="M115.22,71.56c-2.45,9.07-10.73,15.74-20.58,15.74"/>
		<g>
			<path class="st5" d="M82.02,62.71c-0.07,0.64-0.58,1.15-1.22,1.15c-0.65,0-1.17-0.56-1.11-1.21c0.58-6.53,5.81-11.74,12.35-12.29
				c0.63-0.05,1.15,0.48,1.15,1.11c0,0.66-0.55,1.15-1.21,1.23C86.73,53.26,82.55,57.45,82.02,62.71z"/>
		</g>
	</g>
</g>
</svg>
