<?xml version="1.0" encoding="utf-8"?>
<!-- Generator: Adobe Illustrator 24.2.3, SVG Export Plug-In . SVG Version: 6.00 Build 0)  -->
<svg version="1.1" id="Capa_1" xmlns="http://www.w3.org/2000/svg" xmlns:xlink="http://www.w3.org/1999/xlink" x="0px" y="0px"
	 viewBox="0 0 150 100" style="enable-background:new 0 0 150 100;" xml:space="preserve">
<style type="text/css">
	.st0{fill:#E6E6E6;}
	.st1{fill:#303841;}
	.st2{fill:#41579E;}
</style>
<circle class="st0" cx="99.41" cy="53.95" r="31.92"/>
<g>
	<g>
		<path class="st1" d="M92.6,97.22H56.4c-3.48,0-6.31-2.83-6.31-6.31v-49.6c0-0.58,0.47-1.04,1.04-1.04c0.58,0,1.04,0.47,1.04,1.04
			v49.6c0,2.33,1.9,4.23,4.22,4.23H92.6c2.33,0,4.22-1.89,4.22-4.23V12.57c0-2.33-1.89-4.22-4.22-4.22H56.4
			c-2.33,0-4.22,1.89-4.22,4.22v9.45c0,0.58-0.47,1.04-1.04,1.04c-0.58,0-1.04-0.47-1.04-1.04v-9.45c0-3.48,2.83-6.31,6.31-6.31
			H92.6c3.48,0,6.31,2.83,6.31,6.31v78.34C98.91,94.39,96.08,97.22,92.6,97.22z"/>
	</g>
	<g>
		<path class="st1" d="M97.86,85.12H51.14c-0.58,0-1.04-0.47-1.04-1.04V41.31c0-0.58,0.47-1.04,1.04-1.04
			c0.58,0,1.04,0.47,1.04,1.04v41.72h44.64V20.45H52.18v1.57c0,0.58-0.47,1.04-1.04,1.04c-0.58,0-1.04-0.47-1.04-1.04V19.4
			c0-0.58,0.47-1.04,1.04-1.04h46.73c0.58,0,1.04,0.47,1.04,1.04v64.67C98.91,84.65,98.44,85.12,97.86,85.12z"/>
	</g>
	<g>
		<path class="st2" d="M77.44,90.14c0,1.62-1.32,2.94-2.94,2.94c-1.62,0-2.94-1.32-2.94-2.94s1.32-2.94,2.94-2.94
			C76.12,87.2,77.44,88.52,77.44,90.14z"/>
	</g>
	<g>
		<path class="st1" d="M79.67,14.52H68.89c-0.58,0-1.04-0.47-1.04-1.04c0-0.58,0.47-1.04,1.04-1.04h10.78
			c0.58,0,1.04,0.47,1.04,1.04C80.71,14.06,80.24,14.52,79.67,14.52z"/>
	</g>
	<g>
		<path class="st2" d="M82.09,48.87H64.86c-0.58,0-1.04-0.47-1.04-1.04c0-0.58,0.47-1.04,1.04-1.04h17.23
			c0.58,0,1.04,0.47,1.04,1.04C83.13,48.4,82.66,48.87,82.09,48.87z"/>
	</g>
	<g>
		<path class="st2" d="M82.09,48.87c-0.13,0-0.26-0.02-0.39-0.07c-0.54-0.21-0.8-0.82-0.59-1.36l1.64-4.13
			c0.21-0.54,0.82-0.79,1.36-0.59c0.54,0.21,0.8,0.82,0.59,1.36l-1.64,4.13C82.89,48.62,82.5,48.87,82.09,48.87z"/>
	</g>
	<g>
		<path class="st2" d="M64.45,61.12c-0.44,0-0.84-0.28-0.99-0.71l-4.1-12.25c-0.18-0.55,0.11-1.14,0.66-1.32
			c0.55-0.18,1.14,0.11,1.32,0.66l4.1,12.25c0.18,0.55-0.11,1.14-0.66,1.32C64.67,61.11,64.56,61.12,64.45,61.12z"/>
	</g>
	<g>
		<path class="st2" d="M77.28,61.12c-0.13,0-0.26-0.02-0.38-0.07c-0.54-0.21-0.8-0.82-0.59-1.35l4.8-12.25
			c0.21-0.54,0.82-0.8,1.35-0.59c0.54,0.21,0.8,0.82,0.59,1.35l-4.8,12.25C78.1,60.87,77.7,61.12,77.28,61.12z"/>
	</g>
	<g>
		<path class="st2" d="M72.49,61.12h-3.13c-0.58,0-1.04-0.47-1.04-1.04c0-0.58,0.47-1.04,1.04-1.04h3.13c0.58,0,1.04,0.47,1.04,1.04
			C73.54,60.65,73.07,61.12,72.49,61.12z"/>
	</g>
	<g>
		<path class="st2" d="M64.45,64.9c-1.62,0-2.93-1.32-2.93-2.93c0-1.62,1.32-2.93,2.93-2.93c1.62,0,2.93,1.32,2.93,2.93
			C67.38,63.59,66.06,64.9,64.45,64.9z M64.45,61.12c-0.47,0-0.85,0.38-0.85,0.85c0,0.47,0.38,0.84,0.85,0.84
			c0.47,0,0.85-0.38,0.85-0.84C65.29,61.5,64.91,61.12,64.45,61.12z"/>
	</g>
	<g>
		<path class="st2" d="M77.28,64.9c-1.62,0-2.93-1.32-2.93-2.93c0-1.62,1.32-2.93,2.93-2.93c1.62,0,2.93,1.32,2.93,2.93
			C80.22,63.59,78.9,64.9,77.28,64.9z M77.28,61.12c-0.47,0-0.85,0.38-0.85,0.85c0,0.47,0.38,0.84,0.85,0.84
			c0.47,0,0.85-0.38,0.85-0.84C78.13,61.5,77.75,61.12,77.28,61.12z"/>
	</g>
	<g>
		<path class="st2" d="M90.77,44.74h-7.05c-0.58,0-1.04-0.47-1.04-1.04s0.47-1.04,1.04-1.04h7.05c0.58,0,1.04,0.47,1.04,1.04
			S91.35,44.74,90.77,44.74z"/>
	</g>
</g>
</svg>
