<?xml version="1.0" encoding="utf-8"?>
<!-- Generator: Adobe Illustrator 24.2.3, SVG Export Plug-In . SVG Version: 6.00 Build 0)  -->
<svg version="1.1" id="Capa_1" xmlns="http://www.w3.org/2000/svg" xmlns:xlink="http://www.w3.org/1999/xlink" x="0px" y="0px"
	 viewBox="0 0 1006.13 286.65" style="enable-background:new 0 0 1006.13 286.65;" xml:space="preserve">
<style type="text/css">
	.st0{fill:#B1BF4B;}
	.st1{fill:#FFFFFF;}
</style>
<g>
	<g>
		<path class="st0" d="M119.38,61.18l-7.51,43.48H87.24l7.51-42.77c0.85-4.25-1.27-7.08-6.23-7.08c-4.39,0-8.64,1.98-12.32,5.24
			l-7.93,44.61h-24.5l7.51-42.77c0.71-4.25-1.42-7.08-6.23-7.08c-4.53,0-8.64,2.12-12.75,5.52l-7.79,44.33H0l12.18-69.39h24.5
			l-1.13,6.8c6.37-6.23,12.89-8.92,19.83-8.92c7.79,0,14.02,3.54,17.7,8.92c7.65-6.51,15.44-8.92,22.52-8.92
			C111.45,33.14,122.36,45.03,119.38,61.18z"/>
		<path class="st0" d="M208.03,35.26l-12.18,69.39h-24.5l1.13-6.51c-7.22,6.37-13.74,8.64-20.96,8.64c-16,0-25.49-11.61-22.52-28.04
			l7.51-43.48h24.64l-7.36,41.78c-0.85,5.1,1.84,8.07,7.36,8.07c4.67,0,9.49-2.12,14.73-6.37l7.65-43.48H208.03z"/>
		<path class="st0" d="M229.13,2.69h24.5l-17.99,101.97h-24.5L229.13,2.69z"/>
		<path class="st0" d="M286.2,77.61c-0.85,4.96,1.56,7.51,7.36,7.51c4.25,0,8.07-0.71,11.9-2.12l-3.68,20.68
			c-5.38,2.27-10.2,3.12-15.44,3.12c-18.13,0-28.18-9.63-25.07-27.62l3.97-22.66h-10.76l3.68-21.24h10.76l3.82-21.24h24.5
			l-3.68,21.24h21.24l-3.68,21.24h-21.24L286.2,77.61z"/>
		<path class="st0" d="M339.87,104.66h-24.5l12.18-69.39h24.5L339.87,104.66z M329.68,11.9C330.81,5.24,337.04,0,344.26,0
			c9.06,0,14.87,7.08,13.31,15.72c-1.27,6.8-7.51,12.04-14.73,12.04C333.92,27.76,328.12,20.68,329.68,11.9z"/>
		<path class="st0" d="M474.55,61.18l-7.5,43.48H442.4l7.51-42.77c0.85-4.25-1.27-7.08-6.23-7.08c-4.39,0-8.64,1.98-12.32,5.24
			l-7.93,44.61h-24.5l7.51-42.77c0.71-4.25-1.42-7.08-6.23-7.08c-4.53,0-8.64,2.12-12.75,5.52l-7.79,44.33h-24.5l12.18-69.39h24.5
			l-1.13,6.8c6.37-6.23,12.89-8.92,19.83-8.92c7.79,0,14.02,3.54,17.7,8.92c7.65-6.51,15.44-8.92,22.52-8.92
			C466.62,33.14,477.52,45.03,474.55,61.18z"/>
		<path class="st0" d="M525.95,87.66c6.94,0,13.31-1.7,19.26-5.24l6.66,16.71c-8.36,4.96-18.13,7.65-29.17,7.65
			c-25.92,0-41.64-15.29-37.67-38.66c3.4-20.11,19.26-34.98,42.63-34.98c23.08,0,37.67,17.28,29.6,45.46h-48.01
			C511.22,85.11,517.45,87.66,525.95,87.66z M535.58,63.45c0.28-8.5-3.4-11.9-9.77-11.9c-7.08,0-12.75,4.39-15.44,11.9H535.58z"/>
		<path class="st0" d="M657.37,5.52l-17.42,99.13h-24.5l1.13-6.94c-5.81,5.81-13.03,9.06-21.53,9.06
			c-18.27,0-31.01-14.73-27.05-38.8c3.54-21.53,19.4-34.84,36.11-34.84c10.9,0,18.13,4.96,21.95,10.9l6.8-38.52H657.37z
			 M620.13,77.89l2.83-16.14c-2.41-5.24-6.8-7.65-12.46-7.65c-8.5,0-15.86,5.67-17.56,16c-1.56,8.64,1.7,15.58,11.33,15.58
			C610.07,85.68,615.74,83.13,620.13,77.89z"/>
		<path class="st0" d="M679.74,104.66h-24.5l12.18-69.39h24.5L679.74,104.66z M669.55,11.9C670.68,5.24,676.91,0,684.13,0
			c9.06,0,14.87,7.08,13.31,15.72c-1.27,6.8-7.51,12.04-14.73,12.04C673.8,27.76,667.99,20.68,669.55,11.9z"/>
		<path class="st0" d="M782.42,35.26l-12.18,69.39h-24.5l1.13-6.94c-5.81,5.81-13.03,9.06-21.52,9.06
			c-17.28,0-31.3-13.74-27.05-38.8c3.68-21.53,19.4-34.84,36.11-34.84c10.9,0,18.13,4.82,21.95,10.9l1.56-8.78H782.42z
			 M750.41,77.89l2.83-16.14c-2.41-5.24-6.8-7.65-12.46-7.65c-8.5,0-15.86,5.67-17.56,16c-1.56,8.64,1.7,15.58,11.33,15.58
			C740.35,85.68,746.02,83.13,750.41,77.89z"/>
	</g>
	<path class="st1" d="M478.36,200.97l10.48-16.71c7.65,5.38,15.72,7.36,24.36,7.36c7.22,0,11.33-1.42,11.75-4.11
		c0.57-2.97-3.68-3.12-11.9-4.53c-17.56-2.97-28.32-8.64-25.92-22.8c2.12-13.31,14.02-23.22,35.26-23.22
		c19.97,0,27.9,8.92,31.3,18.13l-20.96,6.09c-1.56-4.81-6.37-5.95-11.47-5.95c-5.81,0-8.92,1.7-9.35,4.25
		c-0.42,2.69,2.69,3.54,12.6,5.24c14.87,2.55,29.32,6.09,25.78,23.37c-3.12,16-17.56,22.52-37.39,22.52
		C499.18,210.6,488.41,207.48,478.36,200.97z"/>
	<path class="st1" d="M590.8,181.43c-0.85,4.96,1.56,7.5,7.36,7.5c4.25,0,8.07-0.71,11.9-2.12l-3.68,20.68
		c-5.38,2.27-10.19,3.12-15.44,3.12c-18.13,0-28.18-9.63-25.07-27.62l3.96-22.66h-10.76l3.68-21.24h10.76l3.82-21.24h24.5
		l-3.68,21.24h21.24l-3.68,21.24h-21.24L590.8,181.43z"/>
	<path class="st1" d="M705.51,139.08l-12.18,69.39h-24.5l1.13-6.94c-5.81,5.81-13.03,9.06-21.53,9.06
		c-17.28,0-31.3-13.74-27.05-38.8c3.68-21.53,19.4-34.84,36.11-34.84c10.9,0,18.13,4.81,21.95,10.9l1.56-8.78H705.51z
		 M673.51,181.71l2.83-16.14c-2.41-5.24-6.8-7.65-12.46-7.65c-8.5,0-15.86,5.66-17.56,16c-1.56,8.64,1.7,15.58,11.33,15.58
		C663.45,189.5,669.12,186.95,673.51,181.71z"/>
	<path class="st1" d="M770.65,137.24l-4.53,25.49c-11.9-0.99-22.8,5.24-27.19,12.89l-5.81,32.86h-24.5l12.18-69.39h24.5l-1.98,11.19
		C750.69,140.21,760.6,137.24,770.65,137.24z"/>
	<path class="st1" d="M764.85,200.97l10.48-16.71c7.65,5.38,15.72,7.36,24.36,7.36c7.22,0,11.33-1.42,11.76-4.11
		c0.57-2.97-3.68-3.12-11.9-4.53c-17.56-2.97-28.32-8.64-25.92-22.8c2.12-13.31,14.02-23.22,35.26-23.22
		c19.97,0,27.9,8.92,31.3,18.13l-20.96,6.09c-1.56-4.81-6.37-5.95-11.47-5.95c-5.81,0-8.92,1.7-9.35,4.25
		c-0.42,2.69,2.69,3.54,12.61,5.24c14.87,2.55,29.31,6.09,25.77,23.37c-3.11,16-17.56,22.52-37.39,22.52
		C785.67,210.6,774.9,207.48,764.85,200.97z"/>
	<path class="st1" d="M785.66,126.53l53.58-88.07l14.78,64.05c2.14,9.27,10.61,15.67,20.11,15.19l132.01-6.57L891.9,172.68
		c-7.57,4.08-11.76,12.49-10.44,21l14.43,92.97l-65.95-45.7c-7.36-5.1-17.12-5.05-24.43,0.13l-46.95,33.26l37.74-42.09
		c12.61-14.06,33.59-16.82,49.4-6.48l21.2,13.85l-7.56-41.86c-3.01-16.67,5.31-33.34,20.44-40.96l45.46-22.88l-49.47,3.36
		c-18.65,1.27-35.48-11.12-39.8-29.3l-5.64-22.53l-13.2,22.9C810.66,119.59,798.65,126.53,785.66,126.53L785.66,126.53z"/>
</g>
</svg>
